<?xml version="1.0" encoding="UTF-8" standalone="no"?>
<svg
   viewBox="0 0 56408.884 802.02229"
   version="1.1"
   id="svg61"
   sodipodi:docname="oig-color-lockup.svg"
   width="56408.883"
   height="802.02228"
   xmlns:inkscape="http://www.inkscape.org/namespaces/inkscape"
   xmlns:sodipodi="http://sodipodi.sourceforge.net/DTD/sodipodi-0.dtd"
   xmlns="http://www.w3.org/2000/svg"
   xmlns:svg="http://www.w3.org/2000/svg">
  <sodipodi:namedview
     id="namedview61"
     pagecolor="#ffffff"
     bordercolor="#000000"
     borderopacity="0.25"
     inkscape:showpageshadow="2"
     inkscape:pageopacity="0.0"
     inkscape:pagecheckerboard="0"
     inkscape:deskcolor="#d1d1d1" />
  <defs
     id="defs1">
    <rect
       x="48.214272"
       y="39.100597"
       width="24.695114"
       height="15.287452"
       id="rect63" />
    <style
       id="style1">.cls-1{fill:#231f20;}.cls-2{fill:#004785;}.cls-3{fill:#005941;}</style>
  </defs>
  <g
     id="Layer_2"
     data-name="Layer 2">
    <g
       id="Layer_1-2"
       data-name="Layer 1">
      <g
         id="g63"
         inkscape:export-filename="..\..\..\OneDrive - Syracuse University\Desktop\SyracuseU\Research\Bioindicators\2024Report\Photos\USDA logo.svg"
         inkscape:export-xdpi="600"
         inkscape:export-ydpi="600">
        <path
           class="cls-1"
           d="m 51.36,18.89 h 0.75 v 3.49 a 2.88,2.88 0 0 0 0.11,0.89 1.52,1.52 0 0 0 0.29,0.57 1,1 0 0 0 0.43,0.31 1.4,1.4 0 0 0 0.54,0.1 1.38,1.38 0 0 0 0.55,-0.1 1,1 0 0 0 0.44,-0.31 1.4,1.4 0 0 0 0.3,-0.57 3.22,3.22 0 0 0 0.11,-0.89 v -3.49 h 0.72 v 3.47 a 3.83,3.83 0 0 1 -0.16,1.2 2.11,2.11 0 0 1 -0.45,0.78 1.67,1.67 0 0 1 -0.67,0.44 2.78,2.78 0 0 1 -1.68,0 1.67,1.67 0 0 1 -0.67,-0.44 2.11,2.11 0 0 1 -0.45,-0.78 3.83,3.83 0 0 1 -0.16,-1.2 z"
           id="path27" />
        <path
           class="cls-1"
           d="m 56.83,24.35 a 0.57,0.57 0 0 1 0.16,-0.42 0.49,0.49 0 0 1 0.38,-0.16 0.51,0.51 0 0 1 0.38,0.16 0.64,0.64 0 0 1 0,0.82 0.55,0.55 0 0 1 -0.38,0.16 0.53,0.53 0 0 1 -0.38,-0.16 0.58,0.58 0 0 1 -0.16,-0.4 z"
           id="path28" />
        <path
           class="cls-1"
           d="m 59.32,23.51 a 2.52,2.52 0 0 0 0.74,0.54 2.1,2.1 0 0 0 0.89,0.2 1.34,1.34 0 0 0 0.9,-0.27 0.84,0.84 0 0 0 0.33,-0.69 0.93,0.93 0 0 0 -0.08,-0.39 1.05,1.05 0 0 0 -0.2,-0.27 2,2 0 0 0 -0.32,-0.2 L 61.2,22.24 60.35,21.87 59.93,21.66 a 2,2 0 0 1 -0.39,-0.31 1.45,1.45 0 0 1 -0.28,-0.43 1.41,1.41 0 0 1 -0.11,-0.57 1.44,1.44 0 0 1 0.14,-0.62 1.73,1.73 0 0 1 0.39,-0.5 1.88,1.88 0 0 1 0.59,-0.33 2.45,2.45 0 0 1 0.74,-0.11 2.29,2.29 0 0 1 1,0.2 2.44,2.44 0 0 1 0.76,0.52 L 62.37,20 a 2.21,2.21 0 0 0 -0.6,-0.41 1.78,1.78 0 0 0 -0.74,-0.15 1.31,1.31 0 0 0 -0.8,0.23 0.77,0.77 0 0 0 -0.3,0.64 0.69,0.69 0 0 0 0.09,0.36 0.71,0.71 0 0 0 0.23,0.26 1.65,1.65 0 0 0 0.31,0.2 l 0.35,0.16 0.84,0.36 a 2.73,2.73 0 0 1 0.48,0.25 1.7,1.7 0 0 1 0.38,0.32 1.34,1.34 0 0 1 0.26,0.43 1.7,1.7 0 0 1 0.09,0.57 1.45,1.45 0 0 1 -0.14,0.66 1.58,1.58 0 0 1 -0.4,0.54 1.93,1.93 0 0 1 -0.63,0.36 2.63,2.63 0 0 1 -0.83,0.13 2.8,2.8 0 0 1 -1.16,-0.24 2.68,2.68 0 0 1 -0.91,-0.64 z"
           id="path29" />
        <path
           class="cls-1"
           d="m 63.88,24.35 a 0.54,0.54 0 0 1 0.16,-0.42 0.49,0.49 0 0 1 0.38,-0.16 0.49,0.49 0 0 1 0.37,0.16 0.61,0.61 0 0 1 0,0.82 0.52,0.52 0 0 1 -0.37,0.16 0.53,0.53 0 0 1 -0.38,-0.16 0.54,0.54 0 0 1 -0.16,-0.4 z"
           id="path30" />
        <path
           class="cls-1"
           d="m 68.16,18.89 h 1.48 a 2.75,2.75 0 0 1 2.08,0.76 3.07,3.07 0 0 1 0.71,2.17 4,4 0 0 1 -0.18,1.25 2.53,2.53 0 0 1 -0.53,0.94 2.32,2.32 0 0 1 -0.87,0.59 3.26,3.26 0 0 1 -1.17,0.2 h -1.52 z m 1.43,5.3 a 1.89,1.89 0 0 0 1.55,-0.63 2.66,2.66 0 0 0 0.52,-1.74 2.58,2.58 0 0 0 -0.52,-1.72 1.94,1.94 0 0 0 -1.55,-0.59 h -0.68 v 4.68 z"
           id="path31" />
        <path
           class="cls-1"
           d="m 73.7,18.89 h 3.4 v 0.63 h -2.65 v 1.86 h 2.24 V 22 h -2.24 v 2.14 h 2.74 v 0.64 H 73.7 Z"
           id="path32" />
        <path
           class="cls-1"
           d="m 78.44,18.89 h 1.81 a 4.13,4.13 0 0 1 0.89,0.09 1.81,1.81 0 0 1 0.69,0.3 1.27,1.27 0 0 1 0.44,0.53 2.16,2.16 0 0 1 0,1.63 1.46,1.46 0 0 1 -0.44,0.57 2.22,2.22 0 0 1 -0.69,0.34 3.56,3.56 0 0 1 -0.89,0.11 h -1.06 v 2.34 h -0.75 z m 1.72,3 a 1.82,1.82 0 0 0 1.15,-0.3 1.08,1.08 0 0 0 0.37,-0.92 1,1 0 0 0 -0.38,-0.89 2.15,2.15 0 0 0 -1.14,-0.24 h -1 v 2.35 z"
           id="path33" />
        <path
           class="cls-1"
           d="m 85.88,23 h -2.15 l -0.56,1.8 H 82.4 l 2,-5.91 h 0.85 l 2,5.91 h -0.8 z M 85.69,22.39 85.42,21.5 c -0.11,-0.33 -0.21,-0.66 -0.31,-1 -0.1,-0.34 -0.19,-0.66 -0.29,-1 v 0 c -0.09,0.34 -0.19,0.67 -0.28,1 -0.09,0.33 -0.2,0.66 -0.31,1 l -0.28,0.89 z"
           id="path34" />
        <path
           class="cls-1"
           d="M 91.32,24.8 89.9,22.3 h -1.07 v 2.5 h -0.75 v -5.91 h 1.84 a 3.67,3.67 0 0 1 0.84,0.09 1.83,1.83 0 0 1 0.65,0.28 1.28,1.28 0 0 1 0.43,0.52 1.76,1.76 0 0 1 0.16,0.77 1.65,1.65 0 0 1 -0.36,1.11 1.88,1.88 0 0 1 -1,0.56 l 1.5,2.58 z m -2.49,-3.11 h 1 a 1.71,1.71 0 0 0 1.06,-0.28 1,1 0 0 0 0.37,-0.86 0.89,0.89 0 0 0 -0.37,-0.82 2.06,2.06 0 0 0 -1.06,-0.23 h -1 z"
           id="path35" />
        <path
           class="cls-1"
           d="m 94.35,19.52 h -1.78 v -0.63 h 4.32 v 0.63 h -1.78 v 5.28 h -0.76 z"
           id="path36" />
        <path
           class="cls-1"
           d="m 98,18.89 h 0.89 l 1.11,3.17 0.43,1.21 v 0 l 0.41,-1.21 1.16,-3.17 h 0.89 v 5.91 h -0.71 v -3.25 c 0,-0.26 0,-0.56 0,-0.87 0,-0.31 0,-0.61 0.06,-0.88 v 0 l -0.48,1.32 -1.13,3.08 H 100.2 L 99.06,21.12 98.59,19.8 v 0 c 0,0.27 0,0.56 0.06,0.88 0.06,0.32 0,0.61 0,0.87 V 24.8 H 98 Z"
           id="path37" />
        <path
           class="cls-1"
           d="m 104.5,18.89 h 3.4 v 0.63 h -2.66 v 1.86 h 2.24 V 22 h -2.24 v 2.14 H 108 v 0.64 h -3.5 z"
           id="path38" />
        <path
           class="cls-1"
           d="M 109.24,18.89 H 110 l 2.14,3.71 0.63,1.23 v 0 c 0,-0.3 0,-0.61 -0.06,-0.94 -0.06,-0.33 0,-0.63 0,-0.94 v -3.06 h 0.71 v 5.91 h -0.77 l -2.14,-3.72 -0.64,-1.21 v 0 c 0,0.3 0.05,0.6 0.07,0.91 0.02,0.31 0,0.62 0,0.93 v 3.09 h -0.71 z"
           id="path39" />
        <path
           class="cls-1"
           d="m 116.29,19.52 h -1.79 v -0.63 h 4.32 v 0.63 H 117 v 5.28 h -0.75 z"
           id="path40" />
        <path
           class="cls-1"
           d="m 123.88,24.91 a 2.45,2.45 0 0 1 -1,-0.22 2.28,2.28 0 0 1 -0.8,-0.62 2.8,2.8 0 0 1 -0.51,-1 4,4 0 0 1 -0.19,-1.28 3.91,3.91 0 0 1 0.19,-1.28 2.79,2.79 0 0 1 0.51,-0.95 2.34,2.34 0 0 1 0.8,-0.6 2.64,2.64 0 0 1 2,0 2.25,2.25 0 0 1 0.8,0.6 2.82,2.82 0 0 1 0.53,0.95 4.19,4.19 0 0 1 0.18,1.27 4.26,4.26 0 0 1 -0.18,1.28 2.83,2.83 0 0 1 -0.53,1 2.19,2.19 0 0 1 -0.8,0.62 2.45,2.45 0 0 1 -1,0.23 z m 0,-0.66 a 1.56,1.56 0 0 0 0.72,-0.17 1.82,1.82 0 0 0 0.55,-0.49 2.48,2.48 0 0 0 0.35,-0.77 3.41,3.41 0 0 0 0.13,-1 3.35,3.35 0 0 0 -0.13,-1 2.36,2.36 0 0 0 -0.35,-0.75 1.75,1.75 0 0 0 -0.55,-0.47 1.56,1.56 0 0 0 -0.72,-0.17 1.52,1.52 0 0 0 -0.71,0.17 1.55,1.55 0 0 0 -0.55,0.47 2.38,2.38 0 0 0 -0.36,0.75 3.73,3.73 0 0 0 -0.12,1 3.81,3.81 0 0 0 0.12,1 2.49,2.49 0 0 0 0.36,0.77 1.61,1.61 0 0 0 0.55,0.49 1.52,1.52 0 0 0 0.71,0.17 z"
           id="path41" />
        <path
           class="cls-1"
           d="m 127.68,18.89 h 3.4 v 0.63 h -2.65 v 2 h 2.25 v 0.63 h -2.25 v 2.65 h -0.75 z"
           id="path42" />
        <path
           class="cls-1"
           d="m 136.64,23 h -2.15 l -0.57,1.8 h -0.76 l 2,-5.91 H 136 l 2,5.91 h -0.8 z m -0.19,-0.61 -0.28,-0.89 c -0.1,-0.33 -0.21,-0.66 -0.3,-1 -0.09,-0.34 -0.19,-0.66 -0.29,-1 v 0 c -0.09,0.34 -0.19,0.67 -0.28,1 -0.09,0.33 -0.2,0.66 -0.31,1 l -0.28,0.89 z"
           id="path43" />
        <path
           class="cls-1"
           d="m 138.41,21.85 a 3.66,3.66 0 0 1 0.2,-1.28 2.83,2.83 0 0 1 0.57,-1 2.47,2.47 0 0 1 0.82,-0.57 2.75,2.75 0 0 1 1.09,-0.21 2,2 0 0 1 1,0.23 3,3 0 0 1 0.67,0.49 l -0.43,0.48 a 2.46,2.46 0 0 0 -0.51,-0.39 1.67,1.67 0 0 0 -0.75,-0.16 1.92,1.92 0 0 0 -0.81,0.17 1.67,1.67 0 0 0 -0.61,0.48 2.05,2.05 0 0 0 -0.39,0.75 3.33,3.33 0 0 0 -0.14,1 3.46,3.46 0 0 0 0.13,1 2.17,2.17 0 0 0 0.38,0.76 1.72,1.72 0 0 0 0.61,0.49 2.07,2.07 0 0 0 0.84,0.17 1.72,1.72 0 0 0 0.6,-0.1 1.24,1.24 0 0 0 0.47,-0.25 V 22.36 H 141 v -0.62 h 1.94 v 2.48 a 2.22,2.22 0 0 1 -0.76,0.49 2.79,2.79 0 0 1 -1.07,0.2 2.69,2.69 0 0 1 -1.11,-0.21 2.49,2.49 0 0 1 -0.84,-0.6 2.79,2.79 0 0 1 -0.54,-1 3.72,3.72 0 0 1 -0.21,-1.25 z"
           id="path44" />
        <path
           class="cls-1"
           d="m 147.54,24.8 -1.42,-2.5 h -1.07 v 2.5 h -0.75 v -5.91 h 1.85 A 3.64,3.64 0 0 1 147,19 a 2,2 0 0 1 0.66,0.28 1.34,1.34 0 0 1 0.42,0.52 1.63,1.63 0 0 1 0.16,0.77 1.65,1.65 0 0 1 -0.36,1.11 1.84,1.84 0 0 1 -1,0.56 l 1.5,2.58 z m -2.49,-3.11 h 1 a 1.71,1.71 0 0 0 1.06,-0.28 1,1 0 0 0 0.37,-0.86 0.89,0.89 0 0 0 -0.37,-0.82 A 2.06,2.06 0 0 0 146,19.5 h -1 z"
           id="path45" />
        <path
           class="cls-1"
           d="m 149.53,18.89 h 0.75 v 5.91 h -0.75 z"
           id="path46" />
        <path
           class="cls-1"
           d="m 151.56,21.85 a 3.91,3.91 0 0 1 0.19,-1.28 3.15,3.15 0 0 1 0.55,-1 2.45,2.45 0 0 1 0.83,-0.6 2.66,2.66 0 0 1 1.05,-0.21 1.93,1.93 0 0 1 0.95,0.22 2.5,2.5 0 0 1 0.67,0.5 l -0.43,0.48 a 1.81,1.81 0 0 0 -0.52,-0.4 1.37,1.37 0 0 0 -0.66,-0.15 1.73,1.73 0 0 0 -0.76,0.17 1.61,1.61 0 0 0 -0.59,0.48 2.2,2.2 0 0 0 -0.38,0.75 3.71,3.71 0 0 0 -0.13,1 3.46,3.46 0 0 0 0.13,1 2.55,2.55 0 0 0 0.36,0.76 1.61,1.61 0 0 0 1.34,0.66 1.63,1.63 0 0 0 0.75,-0.17 2.68,2.68 0 0 0 0.61,-0.49 l 0.42,0.46 a 2.62,2.62 0 0 1 -0.79,0.63 2.21,2.21 0 0 1 -1,0.23 2.5,2.5 0 0 1 -1,-0.21 2.32,2.32 0 0 1 -0.82,-0.6 2.79,2.79 0 0 1 -0.54,-1 4,4 0 0 1 -0.23,-1.23 z"
           id="path47" />
        <path
           class="cls-1"
           d="m 156.88,18.89 h 0.75 v 3.49 a 3.22,3.22 0 0 0 0.11,0.89 1.52,1.52 0 0 0 0.29,0.57 1,1 0 0 0 0.44,0.31 1.4,1.4 0 0 0 0.54,0.1 1.42,1.42 0 0 0 0.55,-0.1 1.08,1.08 0 0 0 0.44,-0.31 1.69,1.69 0 0 0 0.3,-0.57 3.26,3.26 0 0 0 0.1,-0.89 v -3.49 h 0.72 v 3.47 a 3.83,3.83 0 0 1 -0.16,1.2 2.24,2.24 0 0 1 -0.44,0.78 1.7,1.7 0 0 1 -0.68,0.44 2.72,2.72 0 0 1 -0.83,0.13 2.84,2.84 0 0 1 -0.84,-0.13 1.7,1.7 0 0 1 -0.68,-0.44 2,2 0 0 1 -0.44,-0.78 3.81,3.81 0 0 1 -0.17,-1.2 z"
           id="path48" />
        <path
           class="cls-1"
           d="m 162.72,18.89 h 0.74 v 5.27 h 2.59 v 0.64 h -3.33 z"
           id="path49" />
        <path
           class="cls-1"
           d="m 167.23,19.52 h -1.78 v -0.63 h 4.32 v 0.63 H 168 v 5.28 h -0.76 z"
           id="path50" />
        <path
           class="cls-1"
           d="m 170.81,18.89 h 0.74 v 3.49 a 3.22,3.22 0 0 0 0.11,0.89 1.52,1.52 0 0 0 0.29,0.57 1,1 0 0 0 0.44,0.31 1.4,1.4 0 0 0 0.54,0.1 1.42,1.42 0 0 0 0.55,-0.1 1,1 0 0 0 0.44,-0.31 1.4,1.4 0 0 0 0.3,-0.57 3.22,3.22 0 0 0 0.11,-0.89 v -3.49 h 0.72 v 3.47 a 3.81,3.81 0 0 1 -0.17,1.2 2,2 0 0 1 -0.44,0.78 1.67,1.67 0 0 1 -0.67,0.44 2.78,2.78 0 0 1 -1.68,0 1.7,1.7 0 0 1 -0.68,-0.44 2.24,2.24 0 0 1 -0.44,-0.78 3.83,3.83 0 0 1 -0.16,-1.2 z"
           id="path51" />
        <path
           class="cls-1"
           d="m 179.88,24.8 -1.42,-2.5 h -1.07 v 2.5 h -0.75 v -5.91 h 1.84 a 3.73,3.73 0 0 1 0.84,0.09 1.83,1.83 0 0 1 0.65,0.28 1.28,1.28 0 0 1 0.43,0.52 1.76,1.76 0 0 1 0.15,0.77 1.65,1.65 0 0 1 -0.36,1.11 1.85,1.85 0 0 1 -1,0.56 l 1.49,2.58 z m -2.49,-3.11 h 1 a 1.71,1.71 0 0 0 1.06,-0.28 1,1 0 0 0 0.37,-0.86 0.91,0.91 0 0 0 -0.37,-0.82 2.06,2.06 0 0 0 -1.06,-0.23 h -1 z"
           id="path52" />
        <path
           class="cls-1"
           d="m 181.87,18.89 h 3.4 v 0.63 h -2.66 v 1.86 h 2.25 V 22 h -2.25 v 2.14 h 2.75 v 0.64 h -3.49 z"
           id="path53" />
        <path
           class="cls-2"
           d="M 9.39,1.15 9.34,8.29 c 0,3 -1.77,4.12 -4.14,4.12 -2,0 -4.64,-0.91 -4.64,-4 V 1.15 A 0.88,0.88 0 0 0 0,0.37 H 3.35 A 0.86,0.86 0 0 0 2.81,1.15 v 7.32 c 0,1.22 0.42,2.94 2.69,2.94 2.07,0 2.82,-1.36 2.82,-3.08 V 1.15 A 0.84,0.84 0 0 0 7.82,0.37 h 2 A 0.82,0.82 0 0 0 9.37,1.15"
           id="path54" />
        <path
           class="cls-2"
           d="m 14.12,12.41 a 7.35,7.35 0 0 1 -3.35,-0.84 l -0.09,-3 c 0.33,1.24 1.38,2.88 3.19,2.88 a 2.05,2.05 0 0 0 2.25,-2.09 c 0,-1.68 -1.51,-1.9 -3.1,-2.76 -1.59,-0.86 -2.31,-1.83 -2.31,-3.16 0,-2.37 2.22,-3.31 3.81,-3.31 a 5.63,5.63 0 0 1 2.63,0.64 l 0.09,2.58 A 3.14,3.14 0 0 0 14.33,1.03 1.69,1.69 0 0 0 12.48,2.71 c 0,1.06 0.75,1.46 2.39,2.21 1.64,0.75 3.31,1.35 3.31,3.77 a 3.84,3.84 0 0 1 -4.06,3.67"
           id="path55" />
        <path
           class="cls-2"
           d="m 23.82,12.23 h -4.49 a 0.85,0.85 0 0 0 0.46,-0.78 V 1.15 A 0.81,0.81 0 0 0 19.33,0.37 H 24 c 5.74,0 6.89,4.06 6.89,5.76 0,3 -2.34,6.1 -7,6.1 m -0.21,-11 c -0.42,0 -1.34,0 -1.61,0 v 10.1 h 1.4 c 4,0 5,-2.66 5,-5.2 A 4.62,4.62 0 0 0 23.64,1.24"
           id="path56" />
        <path
           class="cls-2"
           d="m 37.65,12.23 c 0.46,-0.24 0.55,-0.48 0.42,-0.85 0,-0.18 -0.5,-1.24 -1,-2.43 H 32.8 a 24.88,24.88 0 0 0 -1,2.41 c -0.16,0.42 -0.07,0.66 0.4,0.87 h -2.38 a 2.09,2.09 0 0 0 0.82,-0.85 C 31,10.72 35.56,0 35.56,0 c 0,0 4.64,10.72 5,11.38 a 1.47,1.47 0 0 0 0.87,0.85 z M 34.9,3.77 c 0,0 -1.19,3 -1.75,4.28 h 3.53 C 35.86,6.11 34.9,3.77 34.9,3.77"
           id="path57" />
        <path
           class="cls-3"
           d="m 40.87,13.91 c 0,0 -25.4,-0.63 -40.44,7.39 0,0 15.94,-6.31 40.44,-5.68 z"
           id="path58" />
        <path
           class="cls-3"
           d="M 0.43,13.91 C 0.43,13.91 9,14 14.3,16 14.3,16 3.4,15.1 0.43,15.55 Z"
           id="path59" />
        <path
           class="cls-3"
           d="m 0.43,16.7 a 90.6,90.6 0 0 1 9.81,0.09 c 0,0 -8.91,1.08 -9.81,1.53 z"
           id="path60" />
        <path
           class="cls-3"
           d="m 36.66,17 h -0.13 c -7.39,0.14 -22.88,1 -36.1,5.7 v 5.63 H 40.87 V 17 c 0,0 -1.57,-0.05 -4.21,0"
           id="path61" />
        <text
           xml:space="preserve"
           style="font-size:12.6667px;font-family:Arial, Arial_MSFontService, sans-serif;-inkscape-font-specification:'Arial, Arial_MSFontService, sans-serif, Normal';text-align:center;text-anchor:middle;fill:#b2df8a;stroke:#000000;stroke-width:0.434646;stroke-linecap:round;stroke-linejoin:round;stroke-miterlimit:5;stroke-opacity:0"
           x="143.22742"
           y="11.331776"
           id="text61"><tspan
             sodipodi:role="line"
             id="tspan61"
             x="143.22742"
             y="11.331776"
             style="font-style:normal;font-variant:normal;font-weight:normal;font-stretch:normal;font-size:12.6667px;font-family:Sans;-inkscape-font-specification:Sans;fill:#1a1a1a">Office of the Chief Economist</tspan></text>
      </g>
      <text
         xml:space="preserve"
         id="text63"
         style="font-style:normal;font-variant:normal;font-weight:normal;font-stretch:normal;font-size:13.3333px;font-family:Sans;-inkscape-font-specification:Sans;text-align:center;white-space:pre;shape-inside:url(#rect63);fill:#1a1a1a;stroke:#000000;stroke-width:0.434646;stroke-linecap:round;stroke-linejoin:round;stroke-miterlimit:5;stroke-opacity:0" />
    </g>
  </g>
</svg>
